simulation
nRows=43
nColumns=15
endheader
time  TH_x TH_y TH_z SC_y  SC_z  SC_x  AC_y  AC_z  AC_x  GH_y  GH_z  GH_yy  EL_x  PS_y
0.000000  0.000000  0.000000  0.000000  -34.415377  6.648372  -10.000000  60.317009  18.537410  6.502645  -10.336378  27.156103  40.508185  25.585143  112.379954
0.000232  0.000000  0.000000  0.000000  -34.415377  6.648372  -5.714286  60.946666  14.801993  4.309020  -10.336378  27.156103  40.508185  25.585143  112.379954
0.000463  0.000000  0.000000  0.000000  -34.415377  6.648372  -1.428571  61.420923  11.046538  2.189981  -10.336378  27.156103  40.508185  25.585143  112.379954
0.000695  0.000000  0.000000  0.000000  -34.415377  6.648372  2.857143  61.749976  7.276721  0.124655  -10.336378  27.156103  40.508185  25.585143  112.379954
0.000926  0.000000  0.000000  0.000000  -34.415377  6.648372  7.142857  61.940760  3.497703  -1.906180  -10.336378  27.156103  40.508185  25.585143  112.379954
0.001158  0.000000  0.000000  0.000000  -34.415377  6.648372  11.428571  61.997263  -0.285656  -3.920669  -10.336378  27.156103  40.508185  25.585143  112.379954
0.001389  0.000000  0.000000  0.000000  -34.415377  6.648372  15.714286  61.920637  -4.068663  -5.936491  -10.336378  27.156103  40.508185  25.585143  112.379954
0.001621  0.000000  0.000000  0.000000  -34.415377  6.648372  20.000000  61.709293  -7.846608  -7.971346  -10.336378  27.156103  40.508185  25.585143  112.379954
0.001852  0.000000  0.000000  0.000000  -34.415377  6.648372  24.285714  61.358838  -11.614600  -10.043518  -10.336378  27.156103  40.508185  25.585143  112.379954
0.002084  0.000000  0.000000  0.000000  -34.415377  6.648372  28.571429  60.861855  -15.367407  -12.172435  -10.336378  27.156103  40.508185  25.585143  112.379954
0.002315  0.000000  0.000000  0.000000  -34.415377  6.648372  32.857143  60.207625  -19.099263  -14.379272  -10.336378  27.156103  40.508185  25.585143  112.379954
0.002547  0.000000  0.000000  0.000000  -34.415377  6.648372  37.142857  59.381652  -22.803629  -16.687689  -10.336378  27.156103  40.508185  25.585143  112.379954
0.002778  0.000000  0.000000  0.000000  -34.415377  6.648372  41.428571  58.365103  -26.472919  -19.124598  -10.336378  27.156103  40.508185  25.585143  112.379954
0.003010  0.000000  0.000000  0.000000  -34.415377  6.648372  45.714286  57.133839  -30.098135  -21.721281  -10.336378  27.156103  40.508185  25.585143  112.379954
0.003241  0.000000  0.000000  0.000000  -34.415377  6.648372  50.000000  55.657668  -33.668425  -24.514300  -10.336378  27.156103  40.508185  25.585143  112.379954
0.003473  0.000000  0.000000  0.000000  -11.164613  -7.905533  -10.000000  63.978936  24.571336  -9.325006  -5.386075  14.561135  46.307004  30.961184  128.212952
0.003705  0.000000  0.000000  0.000000  -11.164613  -7.905533  -5.714286  64.752575  20.707021  -11.333540  -5.386075  14.561135  46.307004  30.961184  128.212952
0.003936  0.000000  0.000000  0.000000  -11.164613  -7.905533  -1.428571  65.366803  16.820583  -13.241795  -5.386075  14.561135  46.307004  30.961184  128.212952
0.004168  0.000000  0.000000  0.000000  -11.164613  -7.905533  2.857143  65.837040  12.917249  -15.073095  -5.386075  14.561135  46.307004  30.961184  128.212952
0.004399  0.000000  0.000000  0.000000  -11.164613  -7.905533  7.142857  66.174669  9.001554  -16.847874  -5.386075  14.561135  46.307004  30.961184  128.212952
0.004631  0.000000  0.000000  0.000000  -11.164613  -7.905533  11.428571  66.387653  5.077553  -18.584562  -5.386075  14.561135  46.307004  30.961184  128.212952
0.004862  0.000000  0.000000  0.000000  -11.164613  -7.905533  15.714286  66.480895  1.148959  -20.300193  -5.386075  14.561135  46.307004  30.961184  128.212952
0.005094  0.000000  0.000000  0.000000  -11.164613  -7.905533  20.000000  66.456513  -2.780650  -22.011100  -5.386075  14.561135  46.307004  30.961184  128.212952
0.005325  0.000000  0.000000  0.000000  -11.164613  -7.905533  24.285714  66.313967  -6.707774  -23.733459  -5.386075  14.561135  46.307004  30.961184  128.212952
0.005557  0.000000  0.000000  0.000000  -11.164613  -7.905533  28.571429  66.049988  -10.628794  -25.483829  -5.386075  14.561135  46.307004  30.961184  128.212952
0.005788  0.000000  0.000000  0.000000  -11.164613  -7.905533  32.857143  65.658440  -14.539868  -27.279751  -5.386075  14.561135  46.307004  30.961184  128.212952
0.006020  0.000000  0.000000  0.000000  -11.164613  -7.905533  37.142857  65.130008  -18.436771  -29.140379  -5.386075  14.561135  46.307004  30.961184  128.212952
0.006251  0.000000  0.000000  0.000000  -11.164613  -7.905533  41.428571  64.451714  -22.314707  -31.087246  -5.386075  14.561135  46.307004  30.961184  128.212952
0.006483  0.000000  0.000000  0.000000  -11.164613  -7.905533  45.714286  63.606221  -26.168079  -33.145155  -5.386075  14.561135  46.307004  30.961184  128.212952
0.006715  0.000000  0.000000  0.000000  -11.164613  -7.905533  50.000000  62.570890  -29.990202  -35.343319  -5.386075  14.561135  46.307004  30.961184  128.212952
0.006946  0.000000  0.000000  0.000000  -15.492724  15.800383  -10.000000  51.448598  18.667307  6.700759  -7.348297  34.935069  49.341977  33.336035  122.449502
0.007178  0.000000  0.000000  0.000000  -15.492724  15.800383  -5.714286  52.257391  15.296216  3.933242  -7.348297  34.935069  49.341977  33.336035  122.449502
0.007409  0.000000  0.000000  0.000000  -15.492724  15.800383  -1.428571  52.887550  11.892194  1.253874  -7.348297  34.935069  49.341977  33.336035  122.449502
0.007641  0.000000  0.000000  0.000000  -15.492724  15.800383  2.857143  53.349536  8.463537  -1.358979  -7.348297  34.935069  49.341977  33.336035  122.449502
0.007872  0.000000  0.000000  0.000000  -15.492724  15.800383  7.142857  53.650978  5.017846  -3.925569  -7.348297  34.935069  49.341977  33.336035  122.449502
0.008104  0.000000  0.000000  0.000000  -15.492724  15.800383  11.428571  53.796815  1.562244  -6.465130  -7.348297  34.935069  49.341977  33.336035  122.449502
0.008335  0.000000  0.000000  0.000000  -15.492724  15.800383  15.714286  53.789427  -1.896417  -8.996340  -7.348297  34.935069  49.341977  33.336035  122.449502
0.008567  0.000000  0.000000  0.000000  -15.492724  15.800383  20.000000  53.628699  -5.351364  -11.537690  -7.348297  34.935069  49.341977  33.336035  122.449502
0.008798  0.000000  0.000000  0.000000  -15.492724  15.800383  24.285714  53.312001  -8.795727  -14.107893  -7.348297  34.935069  49.341977  33.336035  122.449502
0.009030  0.000000  0.000000  0.000000  -15.492724  15.800383  28.571429  52.834138  -12.222344  -16.726278  -7.348297  34.935069  49.341977  33.336035  122.449502
0.009261  0.000000  0.000000  0.000000  -15.492724  15.800383  32.857143  52.187224  -15.623557  -19.413194  -7.348297  34.935069  49.341977  33.336035  122.449502
0.009493  0.000000  0.000000  0.000000  -15.492724  15.800383  37.142857  51.360495  -18.990993  -22.190441  -7.348297  34.935069  49.341977  33.336035  122.449502
0.009724  0.000000  0.000000  0.000000  -15.492724  15.800383  41.428571  50.340109  -22.315311  -25.081688  -7.348297  34.935069  49.341977  33.336035  122.449502
